<?xml version="1.0"?><svg viewBox="0 0 64 64" xmlns="http://www.w3.org/2000/svg"><g data-name="Layer 3" id="Layer_3"><polygon points="1 27 63 27 32 1 1 27" style="fill:#f2a7b1"/><polygon points="32 6 7 27 7 63 57 63 57 27 32 6" style="fill:#f97878"/><polygon points="1 27 63 27 32 1 1 27" style="fill:#f2a7b1"/><polygon points="32 6 7 27 7 63 57 63 57 27 32 6" style="fill:#f97878"/><path d="M33.5,7.26,32,6,7,27V63h3V32.592A12,12,0,0,1,14.282,23.4Z" style="fill:#ed5d5d"/><path d="M43.533,37.4a3.8,3.8,0,0,1-.592-2.809A2.937,2.937,0,0,0,43,34a2.967,2.967,0,0,0-.385-1.466,4.425,4.425,0,0,1-.618-2.4q0-.066,0-.132a2.946,2.946,0,0,0-.47-1.6A3.815,3.815,0,0,1,41,26.334h0A6.334,6.334,0,0,0,34.666,20H29.334A6.334,6.334,0,0,0,23,26.334V26.8a2.99,2.99,0,0,1-.53,1.605A2.946,2.946,0,0,0,22,30q0,.066,0,.132a4.425,4.425,0,0,1-.618,2.4A2.967,2.967,0,0,0,21,34a2.937,2.937,0,0,0,.059.59,3.8,3.8,0,0,1-.592,2.809,2.966,2.966,0,0,0-.455,1.875A3.2,3.2,0,0,0,23.152,42h17.7a3.2,3.2,0,0,0,3.14-2.726A2.966,2.966,0,0,0,43.533,37.4Z" style="fill:#c67a60"/><path d="M42.367,48.043,34,45H30l-8.367,3.043A4,4,0,0,0,19,51.8V63H45V51.8A4,4,0,0,0,42.367,48.043Z" style="fill:#f2a7b1"/><path d="M24.633,48.043,33,45H30l-8.367,3.043A4,4,0,0,0,19,51.8V63h3V51.8A4,4,0,0,1,24.633,48.043Z" style="fill:#e8859b"/><path d="M23.012,39.274a2.966,2.966,0,0,1,.455-1.875,3.8,3.8,0,0,0,.592-2.809,2.982,2.982,0,0,1,.326-2.056,4.425,4.425,0,0,0,.618-2.4q0-.066,0-.132a2.946,2.946,0,0,1,.47-1.6A2.99,2.99,0,0,0,26,26.8v-.463A6.334,6.334,0,0,1,32.334,20h-3A6.334,6.334,0,0,0,23,26.334V26.8a2.99,2.99,0,0,1-.53,1.605A2.946,2.946,0,0,0,22,30q0,.066,0,.132a4.425,4.425,0,0,1-.618,2.4,2.982,2.982,0,0,0-.326,2.056,3.8,3.8,0,0,1-.592,2.809,2.966,2.966,0,0,0-.455,1.875A3.2,3.2,0,0,0,23.152,42h3A3.2,3.2,0,0,1,23.012,39.274Z" style="fill:#b26049"/><path d="M34,45l-.586.586a2,2,0,0,1-2.828,0L30,45V40h4Z" style="fill:#f7d1c6"/><path d="M24,30h1a0,0,0,0,1,0,0v4a0,0,0,0,1,0,0H24a2,2,0,0,1-2-2v0A2,2,0,0,1,24,30Z" style="fill:#f4b19f"/><path d="M41,30h1a0,0,0,0,1,0,0v4a0,0,0,0,1,0,0H41a2,2,0,0,1-2-2v0A2,2,0,0,1,41,30Z" style="fill:#f7d1c6" transform="translate(81 64) rotate(180)"/><rect height="8" style="fill:#f7d1c6" width="4" x="19" y="55"/><rect height="8" style="fill:#f7d1c6" width="4" x="41" y="55"/><path d="M32,42h0a7,7,0,0,1-7-7V30h4.394A11.91,11.91,0,0,0,36,28h0l3,2v5A7,7,0,0,1,32,42Z" style="fill:#f7d1c6"/><path d="M28,35V30H25v5a6.99,6.99,0,0,0,8.5,6.835A7,7,0,0,1,28,35Z" style="fill:#f4b19f"/><path d="M30,34V33a1,1,0,0,0-2,0v1a1,1,0,0,0,2,0Z" style="fill:#c67a60"/><path d="M35,32a1,1,0,0,0-1,1v1a1,1,0,1,0,2,0V33A1,1,0,0,0,35,32Z" style="fill:#c67a60"/><path d="M33.293,37.3a1.872,1.872,0,0,1-2.586,0,1,1,0,0,0-1.414,1.414,3.827,3.827,0,0,0,5.414,0A1,1,0,0,0,33.293,37.3Z" style="fill:#f97878"/></g></svg>